<svg id="Capa_1" enable-background="new 0 0 512 512" viewBox="0 0 512 512" xmlns="http://www.w3.org/2000/svg" xmlns:xlink="http://www.w3.org/1999/xlink"><linearGradient id="SVGID_1_" gradientUnits="userSpaceOnUse" x1="0" x2="512" y1="256" y2="256"><stop offset="0" stop-color="#80d8ff"></stop><stop offset="1" stop-color="#ea80fc"></stop></linearGradient><path d="m492 0h-276c-12.357 0-21.79 11.124-19.719 23.342l36.044 212.658h-54.992c-97.782 0-177.333 79.551-177.333 177.333v78.667c0 11.046 8.954 20 20 20h472c11.046 0 20-8.954 20-20v-472c0-11.046-8.954-20-20-20zm-314.667 276h78.667c12.357 0 21.79-11.124 19.719-23.342l-36.044-212.658h232.325v353.333h-430.539c9.713-66.279 66.939-117.333 135.872-117.333zm-137.333 196v-38.667h432v38.667z" fill="url(#SVGID_1_)"></path></svg>